<svg xmlns="http://www.w3.org/2000/svg" viewBox="0 0 420.34 374.17"><title>t446</title><g id="Eagle"><path d="M322.94,168.05" transform="translate(-101.5 -107.33)" style="fill:#bcbec0;stroke:#FFFFFF;stroke-miterlimit:10"/><path d="M289.85,130.27h0Z" transform="translate(-101.5 -107.33)" style="fill:#fff"/><path d="M290.6,147.64a4.39,4.39,0,0,0-4.45,4.15l4.7,15.17,4.7-15.17S294.84,147.54,290.6,147.64Z" transform="translate(-101.5 -107.33)" style="fill:#FFFFFF"/><path d="M302.38,140.18c-2.75-.36-1.16,2.83-3.36,3s-7.55-3.48-8.17-3c-.62-.49-6,3.13-8.17,3s-.61-3.33-3.36-3a9.17,9.17,0,0,0-4.85,2.68s.72,9.12,6.29,9.26c4.86.13,9.4-8.32,10.09-11.12.69,2.8,5.23,11.25,10.08,11.12,5.58-.14,6.3-9.26,6.3-9.26A9.17,9.17,0,0,0,302.38,140.18Z" transform="translate(-101.5 -107.33)" style="fill:#FFFFFF"/><path d="M460,108.71v-1.38s-31.48,18.82-53.84,23.38-49.86-.94-49.86-.94l-.58,2.89a108.9,108.9,0,0,1-7.09,15.85c-3.9,6.73-14.32,21.05-21.49,21.05s-8.25-10.2-10.63-15.19-2-31.48-25.62-31.48-23.23,26.48-25.62,31.48-3.47,15.19-10.63,15.19S237,155.24,233.11,148.51a109.5,109.5,0,0,1-7.1-15.85l-.57-2.89s-27.5,5.49-49.86.94-53.84-23.38-53.84-23.38v1.38S120.22,128.1,135,134.5c0,0-6.73,18.57,15.73,26.27,0,0-2.13,16.25,15.63,19.32,0,0-1,18.71,17.48,18.89,0,0,5.21,20.44,29.09,16.93,0,0,3.83,17.76,20.4,11.07,0,0,10.57,8.21,19.11,1.83,0,0,21.09,39.75,39,39.74s37.84-39.74,37.84-39.74c8.54,6.38,19.11-1.83,19.11-1.83,16.57,6.69,20.4-11.07,20.4-11.07,23.88,3.51,29.09-16.93,29.09-16.93,18.52-.18,17.48-18.89,17.48-18.89C433.11,177,431,160.77,431,160.77c22.46-7.7,15.73-26.27,15.73-26.27C461.48,128.1,460,108.71,460,108.71ZM313.08,174.77l-3-5s.43,5.43-1.74,7.82L306.13,180l-1.08-6.51s-.87,4.34-3.48,6.51-10.72,12.16-10.72,12.16-9.12-10-11.72-12.16-3.48-6.51-3.48-6.51L274.57,180l-2.17-2.38c-2.17-2.39-1.74-7.82-1.74-7.82l-3,5s-4.77-2.6-4.77-5.42,2.82-3.69,5-7.82,1.33-31.24,22.51-31.25,20.36,27.16,22.51,31.25,5,5,5,7.82S313.08,174.77,313.08,174.77Z" transform="translate(-101.5 -107.33)" style="fill:#FFFFFF"/></g><g id="Tent"><polygon points="182.33 374.17 109 370.17 101 174.67 182.33 374.17" style="fill:#FFFFFF"/><path d="M101.5,471.5l104.33,6-7-195.5C171.5,351.5,101.5,471.5,101.5,471.5Z" transform="translate(-101.5 -107.33)" style="fill:#FFFFFF"/></g><g id="Tent_Text_OUTLINED" data-name="Tent Text OUTLINED"><path d="M413.7,342.44c-5.75,0-7.2,4.62-4.67,10.39s8,10.39,13.79,10.39,7.21-4.62,4.68-10.39S419.46,342.44,413.7,342.44Z" transform="translate(-101.5 -107.33)" style="fill:#FFFFFF"/><polygon points="232.75 241.45 249.26 241.45 238.47 216.85 232.75 241.45" style="fill:#FFFFFF"/><polygon points="165.39 241.45 181.9 241.45 171.11 216.85 165.39 241.45" style="fill:#FFFFFF"/><path d="M374.89,396.24h-2l1.59,3.63h2c1.16,0,1.56-.76,1.1-1.81A3,3,0,0,0,374.89,396.24Z" transform="translate(-101.5 -107.33)" style="fill:#FFFFFF"/><polygon points="259.89 290.1 260.37 294.35 263.12 294.35 259.89 290.1" style="fill:#FFFFFF"/><polygon points="234.12 294.35 230.89 290.1 231.38 294.35 234.12 294.35" style="fill:#FFFFFF"/><path d="M388.87,396.35c-2,0-2.71,1.61-1.78,3.72a6.05,6.05,0,0,0,5.05,3.73c2,0,2.7-1.61,1.77-3.73A6,6,0,0,0,388.87,396.35Z" transform="translate(-101.5 -107.33)" style="fill:#FFFFFF"/><path d="M439.84,279.63H207l82,201.72H521.84S451.3,333,439.84,279.63Zm-53.28,50.22L392,300.28h21.73l-5.47,26.91a14.24,14.24,0,0,1,3.33-.35c12.92,0,28.62,10.28,35.11,25.07,8,18.24.07,30.37-15.79,30.37-15.21,0-33.69-11.9-41.24-29.1C385.93,344.75,385.23,337.47,386.56,329.85ZM396.5,393h3.61l4.68,10.68h6.06l1.51,3.42h-9.67Zm-2.87,14.31c-4,0-8.33-3.13-10.11-7.2s-.14-7.31,3.86-7.31,8.32,3.12,10.11,7.19S397.62,407.33,393.63,407.33ZM407.78,393h3.7l6.18,14.1H414Zm-78.84-92.74h19l21.28,48.51h10.86l7.1,16.17H376.32l7.09,16.16H365L357.85,365H325.26l-7.35-16.75Zm48.74,106.84h-3.61L367.89,393h5.93a8.11,8.11,0,0,1,7.32,4.94c1.3,3,.07,5-3.06,5h-2.22ZM250.55,348.21l11-47.93h19l21.28,48.51h10.86l7.1,16.17H309l7.09,16.16H297.59L290.49,365H257.9Zm38.15,58.91L282.51,393h3.7l6.18,14.1Zm15.25,0-9-8.36,3.67,8.36h-3.51L289,393h3.7l8.66,8.08L297.77,393h3.5l6.19,14.1Zm11,0h-4.87L303.93,393h5a11.94,11.94,0,0,1,10.4,7C321.07,404,319.27,407.12,315,407.12Zm9.63,0L318.42,393h3.7l6.19,14.1Zm15.16,0-1.84-2.41h-4.7l.29,2.41h-3.79l-1-14.1h3.6l11.4,14.1Zm14.12,0-9-8.36,3.66,8.36h-3.5L338.89,393h3.7l8.66,8.08L347.7,393h3.51l6.19,14.1Zm3.86-14.1h3.6l11.4,14.1h-4l-1.84-2.41h-4.7l.28,2.41h-3.79Zm46.57,63.2a4.65,4.65,0,0,1,3.17,2.73c.9,2.24-.75,2.87-.75,2.87s2.3,2.44,4.41,2.15c2.73-.38.49-4.48.49-4.48s5.88,2.38,8.05,6.72c1.7,3.41.32,5.79-3.55,5.74a11.92,11.92,0,0,1-6.67-2.29,17.05,17.05,0,0,1-.69,3.95,12.7,12.7,0,0,1-2.51,3.71,48.7,48.7,0,0,1-6-3.71,54.16,54.16,0,0,1-4.38-3.95s-.7,2.24-4.53,2.29a9.72,9.72,0,0,1-8.9-5.74,5.35,5.35,0,0,1,1.78-6.72s1.58,4.1,4.67,4.48a2.09,2.09,0,0,0,2.4-2.15,6.14,6.14,0,0,1-3.43-2.87c-1.21-2.28.63-2.73.63-2.73s-6-9.88-12-8c-4.34,1.34.73,8.77.73,8.77s-12.56-3.43-16.14-15.73c-2.87-9.86,7.49-10.44,14.1-6.87a17.39,17.39,0,0,1-.57-11.19c1.27-4,1.12-11.17,1.12-11.17a131.54,131.54,0,0,0,11.54,11.17c7.23,5.79,9.87,11.19,9.87,11.19,3.27-3.57,14.19-3,20.51,6.87,7.9,12.3-1.48,15.73-1.48,15.73s-1.85-7.43-7.44-8.77C401.08,446.34,404.32,456.22,404.32,456.22Zm20.29-48.89a11.28,11.28,0,0,1-6.22-2.22l1-2.42a8.65,8.65,0,0,0,4,1.55c.66,0,1-.36.75-.88s-1-1.15-3.72-2.18a8.1,8.1,0,0,1-4.85-4.17c-1.06-2.44.08-4.19,3-4.19a10.47,10.47,0,0,1,5.52,1.91l-1,2.42a6.27,6.27,0,0,0-3.11-1.25c-.74,0-1,.38-.78.81.27.62.81,1,2.88,1.77s4.59,2.08,5.63,4.45S427.59,407.33,424.61,407.33Zm7.56,2.41-2.34-6.64h3.6l1.4,6.64Zm10.74-2.62L436.72,393h3.7l6.18,14.1Zm9.95,0h-3.51L443.16,393h3.7l8.66,8.08L452,393h3.5l6.19,14.1h-3.51l-9-8.36Z" transform="translate(-101.5 -107.33)" style="fill:#FFFFFF"/><path d="M310.41,396.35H309l3.27,7.45h1.42c2.16,0,3-1.55,2.06-3.73A6.17,6.17,0,0,0,310.41,396.35Z" transform="translate(-101.5 -107.33)" style="fill:#FFFFFF"/></g></svg>
