<svg id="Layer_1" data-name="Layer 1" xmlns="http://www.w3.org/2000/svg" xmlns:xlink="http://www.w3.org/1999/xlink" viewBox="0 0 811.16 85.02"><defs><clipPath id="clip-path"><polygon points="-0.91 112.03 812.3 112.03 812.3 -1.15 -0.91 -11.15 -0.91 112.03" style="fill:none"/></clipPath></defs><title>bsa-activity</title><g style="clip-path:url(#clip-path)"><path d="M158.52,63.36c-.77,0-1.61.08-2.43,0a60.6,60.6,0,0,1-7.29-.72L145.71,49.1Zm67.75,2.11a12.17,12.17,0,0,0-.77,1c-.21.32.2,1,.2,1l-5.64,2.87s0,0,0,0l-.2,0h0c-.24,0-.26.29-.26.29l-1,.65a.11.11,0,0,0-.08,0,.16.16,0,0,0-.09,0,3.1,3.1,0,0,1-.78.33l-.26,0c-3.1-.73-6.9-1.43-6.9-1.64s5.95-1.11,6.38-1.27,2.55-2,3.23-2,3.75-.59,3.75-.59a18.66,18.66,0,0,1,1.87-.51,5.41,5.41,0,0,1,.64-.07m3.46,0-.93.5-.63-.15.41-.54,1.13-.06c0,.14,0,.25,0,.25M316,41.19s0,.41-.12.47a5.47,5.47,0,0,1-2,0,3.85,3.85,0,0,1-.55-.28Zm0,21.34c0,.19-.49,1.63-.49,1.63a2.26,2.26,0,0,1-.59.47,6.35,6.35,0,0,1-1.47.32c-.41.07-.79.1-1.34.23s-.76.22-1,.12a18.83,18.83,0,0,1-2-1.33c-.25-.23-.83-.55-1.11-.77s-.7-1.66-1-2a10,10,0,0,1-1-1.47,3.07,3.07,0,0,0-1.22-.89,10.28,10.28,0,0,0-1.62-.09,5.06,5.06,0,0,1-1.31-.26l-2.3-.07s-2.72.55-3.06.72-1.79,1.19-1.79,1.19-1.1.21-1.44.25-1.19.13-1.7.26-2.46.82-2.59.82-.55.08-.55.08c-.25.05-4.39.2-4.39.2s-1.91-.06-3.36-.06-6.36-.35-7.29-.4-2.94-1.44-3.46-1.62-7,1.33-9,1.39-8-.46-10.12,0-4.63,1.1-6.07,1.33a24.85,24.85,0,0,0-3.07.87c-.52.12-3.49.21-5.3.26,0-.31.1-.6.1-.6a1.4,1.4,0,0,1,.36-.1h0c.22,0,1.32.13,2,.13a17.57,17.57,0,0,0,2.06-.19,1.52,1.52,0,0,0,.49-.22,1.85,1.85,0,0,0,.18-.85,8.27,8.27,0,0,0-.31-1.37l3.61-1.82a1.11,1.11,0,0,0,.28,0,.14.14,0,0,0,.15-.19l1.13-.63a1,1,0,0,0,.21-.07,3.76,3.76,0,0,1,.53-.28c.22-.08,1.57-.41,1.83-.51s3.07-1.34,3.89-1.78,2.5-1.41,2.59-2c.06-.39-.1-.48-.3-.48a1.35,1.35,0,0,0-.28,0c-.27.07-6.15,3-6.41,3.11a8,8,0,0,0-.85.61c-.21.11-1.05.48-1.16.53a1.65,1.65,0,0,0-.31.2l-1.09.59a.17.17,0,0,0-.13-.08h0c-.1,0-.17.19-.17.19L241,60a2.49,2.49,0,0,0-.18-.33.41.41,0,0,0-.25-.16l-.07,0a.16.16,0,0,1-.1,0l-.06,0h-.11a.44.44,0,0,0-.27.14.21.21,0,0,1-.13,0h-.21c-.11,0-.25.28-.28.33s-.23,0-.29.17a3.4,3.4,0,0,0-.05.63l-.64.36-.85-.35c-.23-.1-1-.32-1-.32a3.56,3.56,0,0,1-.06-.53c0-.15-.16-.22-.3-.36s-.37-.3-.42-.38a.15.15,0,0,1,0-.16l.09,0c.1,0,.07-.42.07-.42s.32,0,.2-.24-.34-.61-.34-.61h.1c.09,0,.42-.23.61-.31a1.71,1.71,0,0,1,.53-.19c.15,0,.24-.09.11-.16l-1.24-.52a1.75,1.75,0,0,0-.08-.38,7.57,7.57,0,0,0-.74-1.1,1.25,1.25,0,0,0-.9-.3H234a2.66,2.66,0,0,0-1.16.31A2.3,2.3,0,0,0,231.7,58l.05.15h-.08a4.85,4.85,0,0,0-.59,0c-.35.05-1.22.09-1.7.16s-.16.37-.06.48l.61.76a1.49,1.49,0,0,1,.23.64,2.77,2.77,0,0,0,.09.64,1.53,1.53,0,0,1-.43.13,1,1,0,0,0-.57.23,2,2,0,0,0-.58.74c-.06.12-.23.42-.39.73a33.09,33.09,0,0,0-3.8.31,19.37,19.37,0,0,1-5.9-.35,17.56,17.56,0,0,0-3.93-.17,35.24,35.24,0,0,0-6,1.5c-.87.29-7.35.18-9.43.12s-10.12.29-10.12.29a6.32,6.32,0,0,1-.64-1.1c-.29-.64-2.22-2.6-2.71-3.58s-1.86-3.67-2.44-4a7,7,0,0,0-1.81-.64c-.45-.09-.89-.83-.94-1.12a.35.35,0,0,1,.35-.44c.19,0,.19-.3.34-.3a.41.41,0,0,0,.34-.39V52l.3-.19s-.2-.44.68-.3.88-.49.34-.68-.73-.25-.93-.74-1-1.56-1.61-1.66a2.74,2.74,0,0,0-1.91.78c-.29.35-.19,1.72-.19,1.72a2.38,2.38,0,0,1-.44.83c-.25.19-2.26,2.05-2.5,2.2a21.86,21.86,0,0,0-1.76,1.86,15.62,15.62,0,0,0-1,2.84c0,.07-.21.45-.47,1l-.23.46c-.8,1.62-2,4-2,4L167.09,64l-1.67-.52-2.26-.23a8.22,8.22,0,0,1-1.79.12,8.92,8.92,0,0,0-2.16,0L145.41,48v-.19l-.18-.2-.41.06-11.88-7.4-.06-.65-.41-.06-.12.52-10.24,6.49-1.06.2-.64-.69L119,45.8l.06-.75.58.05,1.56-.4s.49.23.52-.46-1.21-.87-1.21-.87-.47-.35-.29-.35-.64-.17-.64-.17l-.93-.06-.75-.81-.17-.29v-.63l-1-.35,0-.41.18-.52-.29-.87-1-.29-.58-.28-.58.23-1.33-.06-.46,1-.87.29L111,40l.23-.53-.17-.69-.58-.64-.81-.05-.41.52,0,1.33-.82.23-.75.87-1.27.28-.29-.46.29-.4.29-.46-.06-.7-.52-.46.23-.46.29-.58-.75-.52-.29-1-.23-.17-.12-.52-1.1-.23-.46.34-.46.76-.81-.23-.23-.29.35-.52a1.24,1.24,0,0,0-1-.64c-.65,0-.75.87-.75.87l-.58-.41-.4.12-.52.23-.76-.17-.23-.81-.17-.81-.93-.93-.57-.58L96,32,94.67,32l-.52.58-.7.06-.63.69a.46.46,0,0,0-.64-.23,2.58,2.58,0,0,0-.93.87l-.29.75-1.5.87-.64.34-.34.87a1.28,1.28,0,0,0-.47-.52c-.26-.12-.62.48-.57.81a.43.43,0,0,0,.4.35l.23.52L88,38.8a.8.8,0,0,0-.69-.35c-.5,0-.17.64-.17.64l-.12,1h-.52l-.35-1-.63-.41-.29-.23-.87.17-.69-.11-.29.87.23.52-.12,1.16-.06.8.29.7.87,1-1,1-.93,1-.46,1.15-1.27.41-.7,1.39L79.57,48l-.41-.7L79,45.16l-.12-1.27L78.3,43l-.64-1.5s-.36-2.16-.75-2.2-.41,1.22-.41,1.22l0,.75-.18,1-.46.46L75.23,44l-.29,1.79-.58,1.39L74.25,46l-.76-2.25-1-1.74-.35-2s-.29-.38-.52-.4-.34.81-.34.81l-.18,1.1-.17.87-.93.69-.29,1.27-.52-1L69,42.5l-.52-1.22a13.36,13.36,0,0,0-.81-1.38c-.07,0-.11.29-.11.29l-.52.87-.24,1.09-.75.52-.23,1-.4.92-.7,1.51-.23-.64-.23-.4-.7-1.51-.4-1.85-.23-.46-.41-1L62,39.38V38.22l-.23-.46s-.39-1.24-.58-1.22-.17.41-.17.41L60.6,38.1l-.47-.4L60,36.6l-.46-1.1s-.34-1.28-.46-1.27-.06.4-.06.4l-.46.87s-.15.66-.2,1.11c-.07-.18-.15-.36-.15-.36L58,35.56l-.46.29-.46.75-.24-.29-.57.12-.41-.76s-.2-1.24-.46-1.21-.29.87-.29.87l-.52,1,.06,1.33.34.69-.81,1.16-.69.29-.18,1-.57.7L52,42.67,51.74,41l-.46-.35-.11-.75L51,39l-.63-.87.11-1.33s-.64-1.36-1-1.44-.12.46-.12.46l-.23,1.21V38l-.75.63v1.22L48,39.61l-.58-.7-.52.58-.81,1.1-.29-.52-1.15-.52V37.93l-.12-1-.06-1.27-.17-1.22-.35-1V32l-.4-1.1S43.1,30,42.78,30s-.52,1.11-.52,1.11l-.18.51L42,33.13l-.35,1-.23.81v1.33l.17.93-.81-.06-.34-.52-.81-.23-.93-.75-.06-1-.17-.64-.12-.64-.29-1-1-.23-.58-.87,0-1.85-.82-.46V27.75l.12-.7-.52-1.38-.58-.93a3.53,3.53,0,0,0-.46-.17c-.27-.09-.23,1.44-.23,1.44l-.81-.11-.23-.46-.64-1.1L32,23.47l-.52-.87.11-1L31.5,20.4l-.35-.75.17-1.39s-.11-.7-.34-.69-.18.46-.18.46l-.46,1.1-.23.69L30,21.39l-.23.81-.46.63-.06,1.1-.17.69L29,25.67l-.35-.12L28,25.26l-.64.41-.06.75-.23.75-.46.06-.58,1.1-.17-.23-.7-.47-.63-.29-.24-.23L24,26.24V25.15l-.28-.7-.47.29-.34-.52v-.87l-.12-.75-.35-.17-.11-.58-.12-.75s-.23-1.28-.46-1.28-.29.35-.29.35l-.06.7-.29,1.33-.35.52-.57-.23-.06-.58-.06-.81L20,20.52,19.93,20v-.75l-.29-.76-.58,0,.06-.52-.23-1.05s-.23-1.57-.47-1.67-.29.34-.29.34l-.17.7-.11.69-.18.52.23.81-.64.29-.05.29-.18.93-.57.23-.24-.58.41-.46-.29-.23-.17-.81v-.64L15.62,16s.29-.67-.35-.86-.17.46-.17.46l-.67,1.31s-.08-.19-.23-.11-.12.58-.12.58l-.4.81-.12.92-.34.18-.12,1.1-.17-.24-.47.18-.46.52-.63.52L10.9,21l-.11-.81-.64-.75-.23-.29-.23-.81-.12-1-.06-.81-.4-.7-.4-1.15s-.07-.54-.47-.47-.17.52-.17.52l-.18.64-.11,1.1L7.49,17l-.29.81-.35.46-.4.58-.64.64-.34.69-.12.75.4.29v.64l-.63.29-.87.35-.52-.24L3.61,22l0-.28a2.43,2.43,0,0,0-.93-.53c-.48-.11-.29.29-.29.29v.81H2v.84H1.3l-.58.84H-.09l-.4-.69V23l-.42-.75V86.69H816.92V11.62l-1.06-.48-.36-.71-.12-.71-.23-1.12L815,7.42l-.47.23-.47.71-.54-1.3-.48.47-.23.54-.59,1.53-.35,1.66-.42-.83-.53-1.24L810.36,8l-.3-1.9-.23.42-.3,1.59-.36,1.13-.59,1.06-.18.65L808.23,12l-.48,1.24-.53-.12-.12-.35-.47-1-.29-1.24-.18.83-.24,1.06-.53.47-.18,1.31.06.88-.77.36-.18.95-.35,1-.36.53-.83.77h-.41l-.06.59-.29-.29-.48-1.19-.82.12-.24-.94-.59-.83-.77.59-.65-1.66.18-1.59-.71-1.36-.24-.83-.3-1.3-.59-2-.18.71-.11,1.48-.42,1.19L796,13.15l-.23,1.19-1,1.95-.41.94-.24-.53-.65-.35-.36-.36-.29-.65-.47,1.18-.18,1.42v1.37l-.77.05L791,20l-.6-.88-.11,1.3L790,21.55l-.47.24L789.06,23,789,24.51l-.59.89-.35,1.12L787.7,26l-.17-1.12V24.1l-.42-.77-.71,1.36-.3.94-.23.89-.18,1.24-.53.06s-.25.68-.77.68a17.4,17.4,0,0,0-3.53.81c-.92.35-1.21,1.39-1.73,1.68s-2,.23-3.07.63a7.52,7.52,0,0,0-3.18,1.8,15.92,15.92,0,0,0-2.14,2.41,3.8,3.8,0,0,0-.84.14c-.22.08-.53-.51,0-.58s.37-.22.24-.78a5.63,5.63,0,0,0-.29-1.34,20,20,0,0,1-.6-1.94,12.69,12.69,0,0,0-.94-2.31c-.22-.37-.93-.56-1.58-.71a14.14,14.14,0,0,1-2-.43,1.66,1.66,0,0,1-.39-.76c-.09-.27.28-.49.59-.77s.37-.68.75-.9.15-.6.07-1.22a5,5,0,0,1,.34-1.78s-.06-.51.28-.55.86,0,1.15,0,.3-.32.49-.64a1.12,1.12,0,0,0,.15-.65,2.48,2.48,0,0,1,.71-.21c.4-.05.8-.16.51-.59s-1.07-.26-1.22-.53a4.79,4.79,0,0,0-.62-.73,3.19,3.19,0,0,0,.49-.69.88.88,0,0,0-.44-1.16c-.45-.29-1-.62-1-.62a1.35,1.35,0,0,0-.21-.72,13.25,13.25,0,0,0-1.16-.94,2.5,2.5,0,0,0-2.22-.69,2.63,2.63,0,0,0-1.8,1.73c-.3.79,1,1.48,1,1.48a1,1,0,0,1-.68.09c-.47,0-.49.7-.73,1.08s-.63.43-.83,1.14a23.21,23.21,0,0,1-1.31,2.31c-.17.49-.4,1.32-.21,1.53a2.08,2.08,0,0,1,.49.68c.23.44-.73.56-1.15.44s-.79.11-1.11.78.34,1.28,1,1.49a10.83,10.83,0,0,1,1.48.73,17.8,17.8,0,0,0-.08,2,18.49,18.49,0,0,1,.47,1.85c0,.45,0,1.15-.09,2s-.74,1.77-.76,2.53-.42,2.53-.39,3.62a25.62,25.62,0,0,1-.24,2.63c0,.17-.34.5-.56.59s-1.3.63-1.47.65a2.76,2.76,0,0,1-.78.17c-.19,0,.21-.32-.29-.76-.28-.24-1.6.08-1.7-.28a4.45,4.45,0,0,1,.08-1.2,8.39,8.39,0,0,1,.35-1.71,7.44,7.44,0,0,0,.27-2.4c0-.93,0-1-.31-1.46s-1.16-1.35-1.08-1.71a1.62,1.62,0,0,0,0-1,2.38,2.38,0,0,0-.59-1c-.14-.21.24-.83.4-1.37a2.24,2.24,0,0,0,.08-1.11c0-.29.08-.3.24-.38a3,3,0,0,0,.32-2c-.16-.79-.41-1.39-.46-1.73s-.77-1.05-.77-1.05a1.49,1.49,0,0,1,.67-.15c.41,0,.21-.14.45-.52a.82.82,0,0,0,.21-.6.86.86,0,0,1,.24-.44,5.21,5.21,0,0,1,.82-.28c.51-.12.42-.34.09-.64s-1,.07-1.2-.37-.84-.69-1.25-.76a2.32,2.32,0,0,0-1.75.75c-.34.51,0,.81.16,1.25s-.11.48-.11.48a.91.91,0,0,1-.18-.5,3.81,3.81,0,0,0-.16-.79c0-.28.08-.29-.08-.62a8.63,8.63,0,0,0-.9-1.15,1.68,1.68,0,0,0-1.06-.61,2.69,2.69,0,0,0-1.88.13c-1,.36-.91,1-.84,1.61a1.53,1.53,0,0,1-.24,1.24,8,8,0,0,0-.51,1.79c-.2.72.34,1.69.3,1.93s-.08.24-.29.38-.35.39-.82,1.2a8,8,0,0,0-.67,3.26,11.68,11.68,0,0,0,.39,2.21c0,.4.91.68.91.68s.69.43.87.52a11.49,11.49,0,0,0,1.49.38c.66.15.82-.33,1.23-.33s.46,0,.66.15.05.39,0,.63a5.86,5.86,0,0,0-.34,1.43c0,.57-.65,2.91-.68,3.55a11.59,11.59,0,0,0-.37,2.52,23.54,23.54,0,0,1-.18,3.49l-.14.25a19.26,19.26,0,0,1-2.19.4,7.57,7.57,0,0,1-1.47-.15,4.71,4.71,0,0,0-1.5.36s-.08-.56-.75-.42a4.78,4.78,0,0,1-1.38.07s0-.34.24-.38.31-.33.23-.9l-.39-3c-.08-.63-.09-2.41-.15-2.87a3.9,3.9,0,0,0-.84-1.62,18.12,18.12,0,0,1-1.24-2.49,7.07,7.07,0,0,0-.11-1.66c-.16-.32-.42-1-.6-1.48a3.05,3.05,0,0,0-.57-.84.88.88,0,0,1,.39-.57c.37-.28.26-.61.06-1.28s-.25-1.47-.35-1.8a3.36,3.36,0,0,0-.72-1.12c-.27-.25-.28-.37-.27-.77s-.47-.46-.6-.61.14-.66.14-.66h.58c.57,0,.31-.27.39-.52s.2-.25.17-.48a1.21,1.21,0,0,1,.05-.47s1.24-.1,1.37-.58c0-.1.09-.3-.06-.38a4.21,4.21,0,0,0-1.29-.2l-.08-.21a1.38,1.38,0,0,0-.63-.79,2.12,2.12,0,0,0-.82-.18,4.13,4.13,0,0,1,0-.63,1.55,1.55,0,0,0-.47-.92c-.2-.26-1.38-.45-1.93-.67a5,5,0,0,0-2.33-.22,3.88,3.88,0,0,0-1.63.79,2.27,2.27,0,0,0-.7,1.77,1.26,1.26,0,0,0,.44,1.09,1.24,1.24,0,0,0-.32.68,3.37,3.37,0,0,1-.08,1.17,4,4,0,0,0-.28,1.36,2.48,2.48,0,0,0,.27,1.63,1.27,1.27,0,0,1,.33.77.62.62,0,0,1-.26.67c-.26.2-.29.38-.4,1.32a2.38,2.38,0,0,0,.42,1.91c.25.14,1.88.73,1.88.73l0,.74s-2.39.32-2.83.49-.46.46-.31,1.6a2,2,0,0,0,.83,1.5,4,4,0,0,0,1.07-.19,5.16,5.16,0,0,1,1.12-.26l.62.26.21.32a5.56,5.56,0,0,1,.43,1.1l.26.71s.25,1.87.25,2.33a5.94,5.94,0,0,1-.4,1.73c-.25.78-.71,2.52-.89,3.4s.06,2.65-.06,3.07,0,1-.23,1.3,0,1.27,0,1.27-.14.18-.11.22c-.31,0-4.17.58-5,.86s-5.38,1.68-5.68,1.73a32.81,32.81,0,0,1-3.47,0,6.37,6.37,0,0,0-2.37.24c-.8.23-3.41,1.61-4.28,1.73s-2,.52-3.3.87a26,26,0,0,1-4,.69,9.61,9.61,0,0,1-2-.05c-.24-.06-2.14-.47-2.89-.53s-3.13-.46-3.54-1-2-.81-2.65-1a31.57,31.57,0,0,0-4.69-.52c-1.56-.06-6.88.52-7.69.46a14.19,14.19,0,0,1-3.76-.93,19.86,19.86,0,0,0-3.94-.81,5.35,5.35,0,0,1-2.77-.92A6.21,6.21,0,0,0,664,51.35c-1.1-.11-7.75-1.5-8.21-1.68s-1.45-.52-3.47-2.71-3.53-1.39-4.11-1.62a4,4,0,0,0-2-.29c-.58.11-3.65.75-4.63,1a9.53,9.53,0,0,0-3.07,2.72c-.17.34-3.06,5-3.87,5.17s-2.89,4.1-3.29,4.27-2.55.7-3,.93a7.16,7.16,0,0,1-2.54.75c-.58-.06-1.68,1.16-2.37,1.39a4.27,4.27,0,0,1-2.43-.4,7.4,7.4,0,0,0-2.55-.06c-.23.06-1.85.23-2.25-.12a10.64,10.64,0,0,0-2.78-1,3,3,0,0,0-1.62.11,12.94,12.94,0,0,0-2.2,2.14,7.28,7.28,0,0,1-2.6,1.8,2.82,2.82,0,0,0-1.62,1c-.46.58-1,2.14-1.33,2.43a3.63,3.63,0,0,1-1.51.75c-.52.12-1,.87-1.21,1.33s-2,.17-2.33.52a9.51,9.51,0,0,1-2.65,1.22c-1.1.41-3.53-.89-3.94-.83s-3.12.06-3.87.06a7,7,0,0,0-2.26.69c-.58.23-3.12,1.22-4.45,1.1s-4.63-.41-6.19-.41-5.33.12-6.19-.29a34.45,34.45,0,0,1-4.22-2c-.64-.52-3.07-.64-4-.75s-7.34-1.7-8.09-1.93S550.48,64.26,550,64s-3.58-1-4.33-1.38a7.17,7.17,0,0,0-3.19-.47,4.7,4.7,0,0,1-2.77-.23,6.32,6.32,0,0,0-2.14-.75,4,4,0,0,1-2.26-1.45,2.37,2.37,0,0,0-2.2-.58c-.57.06-2.15,1.06-2.79.66s-2.32.37-3.48,0-7.52-2.43-8.44-2.54-5.73-.17-5.73-.17a5.16,5.16,0,0,0,2.43-4.46c-.09-4.8-5.15-5.15-5.15-5.15s0-.46-.23-.57a4,4,0,0,0-.63-.29L509,44s.63.81.81,1a1.63,1.63,0,0,0,1,.52c.41,0,.46-1,.52-1.22s-.46-.57-.4-.81a6.24,6.24,0,0,0-.29-1.33s.23-.4.41-.75-.12-1-.12-1a6.64,6.64,0,0,1-1-.7c-.29-.29-1-.92-1.33-1.21s-.81-.93-.81-.93l.47-.11a.84.84,0,0,0,.52-.35c.17-.29.23-.17,1-.23s.69-1.39.69-2.2-1.67-1.79-1.85-1.79-.58-.35-.81-.29-.23.58-.52.87a.87.87,0,0,0-.23.69l-.4.41a3,3,0,0,0-.81-.53,13.45,13.45,0,0,0-2.9-.4c-.4,0-2.77-.17-3.23-.17a5.75,5.75,0,0,0-2,.23A16,16,0,0,0,495.85,35a2.18,2.18,0,0,0-.64,2,9.25,9.25,0,0,1,.46,1.84,13.5,13.5,0,0,0,.64,2.38,1.05,1.05,0,0,1-.35,1,10.4,10.4,0,0,0-1,1.39s-5.67-.46-6.59,3.87a4.89,4.89,0,0,0,2.6,5.5s-1.27.23-1.91.29-2.95.64-3.88.64-1.85-.87-3.64-2a15.35,15.35,0,0,0-5-2.26c-.93,0-6.25-.28-7.41-.4a39.21,39.21,0,0,0-5.15.29c-1.38.11-4.68,1-4.91.93a15.7,15.7,0,0,1-2-1c-.23-.17-1.79,0-2.2-.23s-1.39-.92-2.14-1.44A28.32,28.32,0,0,1,448,43.25a3.74,3.74,0,0,0-3-1.73,4.74,4.74,0,0,1-2-1.39,15,15,0,0,0-2.37-2.31,74.64,74.64,0,0,0-7.81-3.19,11.76,11.76,0,0,0-4.17-.46,9.74,9.74,0,0,1-4-.58,10.4,10.4,0,0,0-2.43-.63l-3.24-.41-.35-1,.06-.75-.11-.7.05-.81a1.93,1.93,0,0,0-.34-.34c-.19-.14-.35.52-.35.52l-.52.92-.81-.35h-.46l-.12-.34h-.69l-.12-.46v-.29l-.06-.41s-.2-.93-.58-1.1-.92.52-.92.52l-.69.52-.59-.05-.8.11.05-.92.06-1V25.9l-1.1-.29-.06-.87-.69-.4-.17-.58-.64-.87L409,21.15s-.42-1.17-.76-1.21-.23.52-.23.52l-.4,1.16v.57l-.47,1.57-.34,1-.06,1.39s-.41-.33-.58-.23-.06.81-.06.81l-.52,1.33-.52-.52-.29-.41-.81-.35a.88.88,0,0,0-.11-.63c-.19-.28-.52.46-.52.46l-.06-.93-.06-.4-.17-.75-.18-.76a2.19,2.19,0,0,0-.34-.69c-.18-.17-.35.52-.35.52a3.49,3.49,0,0,0-.75-.81c-.3-.15-.58.29-.58.29l-.52.93-.35.81-.17.75.23,1-.64-.4-.29-1-.34-.52v-.87L398.6,23l-.23-.81s.12-.4-.52-.51-.23.63-.23.63l-.29,1-.17.87-.29.58-.23.29-.12.81-.58,1.44-.17,1.51-.29.81-.41-1-.05-.8-.29-.82-.23-.52s0-.57-.35-.63-.23.58-.23.58v.81l-.41,1.15-.46.41L392.93,30l-.05.76-.47.11-.29.81-.34,1.22-.07.09-3.09-.15a3.29,3.29,0,0,0-.08-.46c-.06-.18.12-.77-.29-1s-.47.23-.47.23l-.86.58-.35-.24-.12-1.21-.17-.52V28.85l-.64-1.16-.11-.92-.06-1.1-.29-.76s.15-.95-.29-1-.23.23-.23.23v.64l-.23,1.16-.29,1.1-.29,1.15-.06.76-.23.81-.4.52-.29,1.1-1,1.18h-.07l-.48-.42v-.58s-.31-.7-.46-.93-.23.23-.23.23l-.23.93-.59.68L150.13,21.33a.68.68,0,0,0-.39-.24c-.25,0-.89,0-1,.17h0l-2.28-.12a1.34,1.34,0,0,0-.32-.4,5,5,0,0,0-1.83-.47c-.27,0-.26.45-.39.69L-.91,4.35v.52L143.71,21.45s0,0,.08.06a6.56,6.56,0,0,0,1.57.39c.47.08.43.34.64.55a1.63,1.63,0,0,1,.51.68c.13.34.56,1.74.56,1.74a9.61,9.61,0,0,1-.94.9l-.85.55-.09-.6.05-.29s.12-.17-.22-.94a2.05,2.05,0,0,0-2.59-1.15c-1.36.43-.94,2.56-.94,2.56l.26.33-.17.43.25.59.56.39s.12.21,0,.3a2.87,2.87,0,0,0-.6,1.53,8.9,8.9,0,0,0,.68,3.15A33,33,0,0,0,144.39,36a22.7,22.7,0,0,0,2.21,2.25c.17.17.55,0,.55,0s.43.26.72.47.43,0,.81-.09.3,0,.77.09.51-.13.72-.26,2.43-1.87,2.76-2.21,1.2-1.28,1.2-1.28a8.52,8.52,0,0,0,1.66,0c.63-.09,2.67-.09,2.67-.09a5.94,5.94,0,0,0,1.07,1c.25.09.55.3.68-.08a6.31,6.31,0,0,1,.64-1.11s.93-.08,1,.13a6.12,6.12,0,0,0,.85,1c.21.21.59-.17.93-.34s.56-.9.73-1.07.34,0,.55-.25a9.06,9.06,0,0,0,.55-1c.17-.26.68-.94.22-1.41s-.86.05-1.24.3a4,4,0,0,1-1.7.55c-.3,0-.81.47-.81.47l-.38,0,0-.26c-.05-.25-.6-.38-.9-.12a1.2,1.2,0,0,1-1.06.12,25.87,25.87,0,0,1-2.81-1.1,3.89,3.89,0,0,0-1.7-.85,7.93,7.93,0,0,0-2,.81,2.82,2.82,0,0,1-.63-.6,1,1,0,0,0-1.11-.3c-.17.13-1.4,1.19-1.4,1.19l-.77-.68s0-1.19,0-1.57v-2a.88.88,0,0,0,.47-.51,2.83,2.83,0,0,0-.09-1.15l.09-.26c.08-.25-.3-.68-.3-.68l.12-1.83.75-1.36L379.57,32.91l-.12.51.41.69.4.87-.81.06-.4-.12-.29-.29-.4.12L378.07,36,378,37.24l-.63.17-.47,1.5-.11.7-.29,1-.47.92-.29-.52-.4-1.09s.19-1-.17-1.16-.47.23-.47.23l-.23,1-.29,1-.4.23-.18,1.27s.12.81-.17.87a3.26,3.26,0,0,1-.58.06s-.34,1.44-.34,1.62a4.12,4.12,0,0,1-.58,1c-.17.23-.87.46-1.1.81s-.87,1.27-1.1,1.68-.58.63-.87.4-.17-.06-.29.29a18.84,18.84,0,0,1-2.89,5.09,5.3,5.3,0,0,1-3.59,2,13.08,13.08,0,0,1-3.53.7,29.24,29.24,0,0,0-4.28.23,38.42,38.42,0,0,1-4.1.92c-1.22.18-2,.64-3.65,1.05s-8.91-.18-10.47.22a8.11,8.11,0,0,1-3.13.06,23.56,23.56,0,0,0-3.64.06c-.58.17-1.91.46-2.61.58s-2.19.4-2.95.46a8.24,8.24,0,0,0-2.26.89,4.42,4.42,0,0,1-.34-1c-.11-.58-.29-2.49-.46-3.18-.11-.45-.41-1.21-.63-2,0-.07.19-.3.31-.37.32-.21-.15-.86-.15-1.07a31.08,31.08,0,0,1,.12-3.28c.12-.81-.29-1.68-.17-2.25s.34-.24.63-.7.18-.69.41-1.79.11-1.62.35-3.12-1.39-1.68-1.39-1.68,19.44-1.16,21.35-.87,4.84.87,5.25,1.22a.75.75,0,0,0,1.21-.23,4.2,4.2,0,0,0,.46-4.4c-1.42-3.54-10.68-3.41-22-3.17-22.26.49-33.05,2.54-36.81,3.23s-6.88,1.27-8,3.12.46,4.92,1.16,5.67,1,0,2-.4A46.13,46.13,0,0,1,293,42.94c6.78-.86,18.62-1.42,18.62-1.42a17,17,0,0,0,1.65,1.31,8.29,8.29,0,0,0,2.55.33c.1.07.07.71.07.93a5.67,5.67,0,0,0-.1,1,4.24,4.24,0,0,1,.19,1.15,8,8,0,0,0-.19.93c0,.25.29,1.08.22,1.21s-.6,2.45-.76,3.09a21.69,21.69,0,0,0-.37,3.76c0,.12.2.34.29.4a.85.85,0,0,1,.25.6,15.68,15.68,0,0,0,.47,2c.06.29.12,2,.19,2.49a16.06,16.06,0,0,1,0,1.79m3.52-2a10.21,10.21,0,0,1-.56,2.13l-1,.59s-.35-1.29-.42-1.57a24.47,24.47,0,0,1,.18-2.56c0-.28,0-1.39,0-1.61s-.47-1.34-.51-1.53,0,0,0-.28c0-.07.21-.12.21-.2a9.66,9.66,0,0,0-.08-1.47,7.42,7.42,0,0,1,.74,1.85,5.64,5.64,0,0,0,.63,1.72,11.38,11.38,0,0,1,.87,2.93m25.05,20.68s-9.36,0-18.12-.43-23.82,1.45-29.18,1.54-22-3.06-27.22-3.58-13.87,0-14.55-.51-7.74.68-11.91.43-10.12-2-13.27-2.55-8.25-2.3-9.19-3.24a8.34,8.34,0,0,0-2.62-.94h0l1.19-.64a.9.9,0,0,0,.33.09.2.2,0,0,0,.15,0,.31.31,0,0,0,.06-.3l4.35-2.27s.05.33.12.75a4.12,4.12,0,0,0,.79,2.1,10.79,10.79,0,0,0,3.67,1.56c1.55.36,5.24,1,5.42,1.07,1.3.17,8.24,1.51,9.42,1.65a2.7,2.7,0,0,0,.82-.06,2.59,2.59,0,0,0,1.2-1,7.32,7.32,0,0,0,.6-2.74c0-1.38-.1-2-.34-2.2a7.46,7.46,0,0,0-1.27-.56c-.36-.16-2.31-.86-2.79-1L241.21,68v-.1a.68.68,0,0,0,.38-.11c.13-.11,0-.32-.24-.44a8.35,8.35,0,0,0-1.35-.21.65.65,0,0,0-.45-.25h0a7.64,7.64,0,0,0-.76.1l-.41-.12c-.23-.08-1.7-.42-1.7-.42a1.74,1.74,0,0,0-.13-.46,2,2,0,0,0-.34-.3c-.08-.08-.06-.44-.07-.54s0-.11,0-.2l2.06,0c2.38,0,8.67,2.39,17.52,3.66s14.29,4.08,16.59,4.34,6.47-.43,10.55.42,15.48.34,18.8.43,14.8.42,17.61.68,25.35,6.72,25.35,6.72M147.36,27.47c.13-.13.43-.43.43-.22s0,.77-.09,1.2a1.49,1.49,0,0,1-.68,1c-.21.08,0,0-.25-.3a7.56,7.56,0,0,1-.51-.68s1-.85,1.1-1m1.34-5.69a2.33,2.33,0,0,0,.07.63,3.87,3.87,0,0,0,.38.76l-.09,1.41s-.51-.85-.63-1.07-1.24-1.23-1.49-1.61a2.53,2.53,0,0,1-.13-.22ZM388.8,33.36h0Zm2.56.12-.34.28-.57.18-.35,1-.23-.4-.12-.52-.39-.61ZM494.77,53.11a6.77,6.77,0,0,0,1.72-.93,6.42,6.42,0,0,0,1.11-1.28s.83,0,.87.2a1.06,1.06,0,0,0,1.11,1.11c1.41.07,1.38-1.08,1.38-1.08A3.49,3.49,0,0,1,502.1,51c.23.1.13.26.32.26s.23.09.51-.07.23-.29.54-.38a.73.73,0,0,0,.58-.54c.06-.29-.13-.35-.51-.45a4.09,4.09,0,0,1-1-.51l5.68-3.16.06,1.44a6,6,0,0,0-4.08,4.27,5.4,5.4,0,0,0,2.27,5.27,38,38,0,0,1-4-.16c-.48-.16-3.16-2.56-3.58-2.78a7,7,0,0,0-1.91-.57c-.64-.1-2.23-.51-2.23-.51M502,48.64a.39.39,0,0,1-.42-.26c-.16-.31-.41-.86-.09-1.18s1.18-1,1.18-1L507.91,45l.13.25Zm-3.65-1a7.93,7.93,0,0,1,1.32-.72l0,.64a.33.33,0,0,0-.25.12c-.09.13.12.47.12.47v.43c0,.12-.25.55-.51.59s-.8.77-.8.77,0-.34.16-1a2.74,2.74,0,0,0-.08-1.28m-1.1,1a4,4,0,0,1-.26.73l-1-1,1.28-.42a2.49,2.49,0,0,1,0,.72m-1.92,1.49c.17.17.68.81.68.81a4.45,4.45,0,0,1-.93.76c-.47.26-3.66,1.6-5.32-1.14s.68-5.11,2.25-5.66a8,8,0,0,1,2.72-.17l0,.55a9.71,9.71,0,0,1-.55,1.83s-.09.43-.34.43a2.43,2.43,0,0,0-.72.21s-.18-.38-.3-.38,0,.46-.21.8-.09.3-.17.6-.05.3.21.47.47.29.47.29-.13.26-.26.3,0,.47.13.64.42-.34.42-.34.3.34.05.51-.13.38,0,.55.38,0,.59-.08-.08-.47.05-.81.25-.34.46-.47.6.13.77.3m.43-2.51,1.27-.38,0,.3-1.23.42Zm1-1.28a.74.74,0,0,1,.13.51l-1,.26-.08-.17s.17-.68.25-.85a.81.81,0,0,0,.09-.34,2.52,2.52,0,0,1,.59.59m3-2.59a15,15,0,0,0-.17,1.79v.72l-.89.3s0-.47-.09-.56a1.61,1.61,0,0,0-.59,0,2.38,2.38,0,0,0-.6-.81,3.21,3.21,0,0,1-.64-.68s.73-1,.94-1.4.43-.77.55-.94a2.67,2.67,0,0,0,.26-.63l1.06,1.1a1.65,1.65,0,0,1,.17,1.15m8.44-.51-.06,1.08-5.07,1s-.48-.22-.58-.25a7.84,7.84,0,0,1-.7-.61,8.36,8.36,0,0,0,.22-1.82,8.56,8.56,0,0,0-1.14-2.42,6.12,6.12,0,0,0-.55-1.12,1.36,1.36,0,0,1-.25-.57s.35,0,.8,0,1.88.29,2.77.29a17.51,17.51,0,0,1,2.24.22s.76,1.66,1.05,2.36a9.49,9.49,0,0,0,1.27,1.82m.52-2c-.29-.32-.84-1.39-1-1.59a10.13,10.13,0,0,1,1,.89,8.28,8.28,0,0,1,.67,1.15c.19.28.55,1,.61,1.08s.06.61,0,.51a3.79,3.79,0,0,1-.54-.86,5,5,0,0,0-.67-1.18M509.89,57c-1.6,0-3.93-.35-4.6-3.61s3.16-4.69,3.16-4.69.16,3.35.16,3.64a.48.48,0,0,0,.32.48c.16.06.13.28.32.48s.57,0,.67-.1a1.16,1.16,0,0,0,.42-.32c.12-.19-.36-.38-.36-.38a.65.65,0,0,1-.09-.35c0-.23-.48-.51-.48-.51l0-2.46a.64.64,0,0,0,.44-.06c.2-.13.16-.51.16-.51a8.06,8.06,0,0,1,2.36.8A4.23,4.23,0,0,1,509.89,57m227.37-8.09-1,.33c-.52.16-1.93.74-3,1.13a3,3,0,0,1-.61-.05c.13-.36,0-.51-.25-.6s.07-.35.12-.88a11.85,11.85,0,0,0,.08-2,9.88,9.88,0,0,1,.28-1.82,23.11,23.11,0,0,1,.73-2.81,12.54,12.54,0,0,0,.44-2.42c0-.53.15-1.06.18-1.29s.52,0,.84.29,1.47.67,1.68.93a19.21,19.21,0,0,1,.1,3.39c0,.58-.06,1.8-.1,2.32s-.37,1.21-.18,1.35.51.34.51.34,0,1.09.07,1.38a.93.93,0,0,0,.16.38m14.26-11.44a9.55,9.55,0,0,1-.4,1.84,11.28,11.28,0,0,0-.11,1.81,5.63,5.63,0,0,0-.12,1.34c0,.63.14,1.42.17,1.71a4.43,4.43,0,0,1,0,.63l-1.57.32c-.06-.4-.23-2.16-.25-2.74a4.68,4.68,0,0,1,.39-1.9,13.66,13.66,0,0,0,.88-2.13,11.21,11.21,0,0,0,.5-1.39c0-.23.43.23.48.51M766.84,17l.24.08c.24.08.55.22.42.52a5.27,5.27,0,0,1-.48.76,2.46,2.46,0,0,1-.09-.68,2.46,2.46,0,0,0-.09-.68m1.08,20.16c0,.37-.1.53,0,.65l-.12.07-.73.44a.6.6,0,0,0-.48.11,3.91,3.91,0,0,0-.65.5,6.35,6.35,0,0,1-.8.34c-.34.11-1,.41-1.78.75l-.06,0c-1,.46-2.22,1-2.86,1.23-.07-.05,0-.2,0-.2s.14-1.11.2-2a9.74,9.74,0,0,1,.39-2.76,8,8,0,0,0,.63-1.81c.1-.59.07-1.68.23-2.17a6.65,6.65,0,0,1,.73-1.53c.15-.14.51,0,.51,0l.93.05,1.78-.06c.58,0,.79.24.78.65s.54,1.43.65,2.34.2,1.07.26,1.52-.24.78.12.91.29.48.3.94m-298.3-5.66c-1.67-4.92-6.92-3.72-6.92-3.72l-1.28-2,.15-.29s0-1.24,0-1.46a6,6,0,0,0-.62-1.2l-.08-.84a2.4,2.4,0,0,0,.62-.48c.11-.18-.4-.73-.4-.73a3,3,0,0,0-.07-.94,12.82,12.82,0,0,0-1.6-.59,10.35,10.35,0,0,1-1.17-.76,9.4,9.4,0,0,0-1.64-.77l.22-.29c.22-.29.07-.51.15-.8a1.7,1.7,0,0,0-.59-1.46,2.33,2.33,0,0,0-2.15-.29c-.73.33-.8,1.31-1,1.42a1,1,0,0,1-.65,0c-.15,0-.4-.51-.55-.66s-.47,0-.84.18a2.13,2.13,0,0,1-1.24.26,6.5,6.5,0,0,0-1.82.58,6.21,6.21,0,0,0-1.2.4c-.22.19-.11.41-.22.95s.66,1.61.66,1.61a4.27,4.27,0,0,0-.81,2,3.56,3.56,0,0,0,1.28,2.77c.84.66,3.06,2.55,2.95,2.55a7.09,7.09,0,0,0-.95.66,11.91,11.91,0,0,1-1.38-.26c-.95-.21-5.18-.1-6.16,3.76s1.83,6.59,5.21,6.7,5.21-3.35,5.21-3.35l.37.11c.36.11.61.14.87-.15s-.58-.91-.58-.91a2.44,2.44,0,0,1,.29-.25c.11-.08.73-.08,1.42-.26s.66-.44.73-.8,0-.47.58-.73.73-.58.91-.58a.94.94,0,0,0,.62-.26c.22-.18.15-.25.51-.25a1.7,1.7,0,0,0,.95-.37c.36-.21-.58-.76-.58-.76s.65-1.17.8-1.5a3.4,3.4,0,0,1,.8-.8l.95,1.46s-2,1-1.75,4.19c.25,3.75,3.77,5.22,6.16,5.1,2.95-.13,4.91-3,3.82-6.19m-18.91-1.93a1.77,1.77,0,0,1,.4.62,5.29,5.29,0,0,1,.07.54,5.64,5.64,0,0,1-.32.88l-2,.11a.87.87,0,0,1-.11-.37c0-.18-.58-.18-.58-.18l1.74-2.11a3.13,3.13,0,0,1,.77.51m.69-.84-.62-.62s.48-.15.62-.07,0,.69,0,.69m.08,5.39a4.62,4.62,0,0,1-4.23,2.44,4,4,0,0,1-3.83-5.24c.8-2.63,3.9-2.88,4.59-2.85a3.74,3.74,0,0,1,1.13.22l-1.46,2-.58.65a.68.68,0,0,0-.65.73c0,.69.11,1.42.54,1.5s1.35.21,1.83-.3.14-.62.14-.62l.88.11a.58.58,0,0,0,.29.55,7,7,0,0,0,.91.37Zm1.13-3.64.51-1.09s.22,0,.32.47a1.71,1.71,0,0,1,.11.95,4.2,4.2,0,0,1-.18,1c-.11.15-.54-.07-.54-.07a3.14,3.14,0,0,0,0-.7,1.82,1.82,0,0,0-.25-.54m1.09-5.94a6.52,6.52,0,0,0,.14,1.24l-.65-.59c-.22-.18-.88-.8-.88-.8l1,0c.22,0,.14-.59.14-.59l.29-.14s0,.58,0,.91m2.48,2.3a18.15,18.15,0,0,1,2.66-1.06l-1.79,2.37s-.51.11-.65-.08a2.44,2.44,0,0,1-.22-1.23M456,24.16l2.15.88L456,26Zm-1.64,3.43c.07-.15.47-.18.47-.18l.11.8a.68.68,0,0,1-.29-.15c-.11-.11-.36-.34-.29-.47m5.72-6a.35.35,0,0,0-.33.22c-.07.21.18.21.29.43s-.07.55-.22.77a1.11,1.11,0,0,1-.72.36c-.22,0-.37.44-.37.44a2.37,2.37,0,0,1-.95,0c-.29-.11-2-1.1-2-1.1a2.12,2.12,0,0,0-.29-.94c-.22-.22-.7-.11-.8-.22a3.34,3.34,0,0,1-.3-.77c-.07-.22-.29-1.35-.36-1.57s.18-.29.4-.47.4-.33.55-.25,1,.4,1.38.54,1.06.51,1.46.62a4.53,4.53,0,0,1,1.31.51,2.1,2.1,0,0,1,.48.62,6.18,6.18,0,0,0,.47.77m.25,4.81a16.24,16.24,0,0,0-1.2,1.45,13.24,13.24,0,0,1-.69,1.21l-.66-.37,2.15-2.8Zm3.76,5.1.33.62-.26,0-.47-1-1.28-2,.29-.15Zm2.26,5.06a4.57,4.57,0,0,1-5.5-3.6,3.81,3.81,0,0,1,1-3.5l1.57,2.7a1.61,1.61,0,0,0,0,.65.57.57,0,0,0,.55.4c.21,0,.43-.11.62,0s.32.11.54,0,.11.29.55,0,.22-1-.11-1.31a1.47,1.47,0,0,0-.66-.4l-1.45-2.81a5.23,5.23,0,0,1,4.73,2.08c1.72,2.48.42,5.44-1.78,5.79" style="fill:#333333"/></g><polygon points="-0.91 112.03 812.3 112.03 812.3 0.85 -0.91 1.85 -0.91 112.03" style="fill:none"/></svg>